<svg width="574" height="116" viewBox="0 0 574 116" fill="none" xmlns="http://www.w3.org/2000/svg">
<path d="M211.183 75.1515C211.183 77.9456 210.598 80.4473 209.429 82.6565C208.324 84.8658 206.797 86.7502 204.848 88.3097C202.963 89.8042 200.722 90.9738 198.123 91.8185C195.523 92.5983 192.762 92.9881 189.838 92.9881H156.796V23.7859H192.469C194.874 23.7859 197.05 24.3057 199 25.3454C200.949 26.3851 202.606 27.7496 203.971 29.439C205.335 31.0635 206.375 32.9479 207.09 35.0922C207.869 37.1715 208.259 39.2833 208.259 41.4276C208.259 44.8065 207.382 47.9904 205.628 50.9795C203.938 53.9035 201.501 56.0803 198.317 57.5098C202.281 58.6794 205.4 60.8237 207.674 63.9427C210.014 66.9967 211.183 70.7329 211.183 75.1515ZM199.974 73.1047C199.974 71.6751 199.715 70.3106 199.195 69.011C198.74 67.7114 198.09 66.5743 197.245 65.5996C196.466 64.625 195.491 63.8452 194.321 63.2604C193.152 62.6756 191.885 62.3832 190.52 62.3832H167.713V83.5337H189.838C191.267 83.5337 192.599 83.2738 193.834 82.754C195.069 82.1692 196.141 81.4219 197.05 80.5122C197.96 79.5375 198.675 78.4329 199.195 77.1983C199.715 75.8987 199.974 74.5342 199.974 73.1047ZM167.713 33.2403V53.6111H187.791C189.155 53.6111 190.39 53.3512 191.495 52.8313C192.664 52.3115 193.672 51.6292 194.516 50.7845C195.426 49.8748 196.108 48.8027 196.563 47.5681C197.083 46.3335 197.343 44.9689 197.343 43.4744C197.343 40.4854 196.498 38.0487 194.809 36.1643C193.119 34.215 190.975 33.2403 188.376 33.2403H167.713Z" fill="white"/>
<path d="M221.203 92.9881V42.0124H231.925V92.9881H221.203ZM221.203 33.6302V21.8365H231.925V33.6302H221.203Z" fill="white"/>
<path d="M272.295 93.9628C268.396 93.9628 264.855 93.0531 261.671 91.2337C258.552 89.3493 256.083 86.8476 254.263 83.7287V92.9881H244.809V21.8365H255.53V51.6617C257.545 48.4128 260.046 45.8461 263.035 43.9618C266.089 42.0774 269.663 41.1352 273.757 41.1352C277.136 41.1352 280.222 41.8824 283.016 43.377C285.81 44.8065 288.182 46.7558 290.131 49.225C292.146 51.6292 293.673 54.4558 294.712 57.7047C295.817 60.8887 296.369 64.2351 296.369 67.7439C296.369 71.3827 295.752 74.7941 294.518 77.9781C293.283 81.162 291.594 83.9561 289.449 86.3603C287.305 88.6995 284.738 90.5514 281.749 91.916C278.825 93.2805 275.674 93.9628 272.295 93.9628ZM269.468 84.8008C271.808 84.8008 273.952 84.346 275.901 83.4363C277.851 82.4616 279.507 81.1945 280.872 79.635C282.302 78.0755 283.406 76.2886 284.186 74.2743C284.966 72.195 285.356 70.0182 285.356 67.7439C285.356 65.4697 284.966 63.2929 284.186 61.2136C283.471 59.0693 282.432 57.2174 281.067 55.6579C279.767 54.0334 278.175 52.7339 276.291 51.7592C274.472 50.7845 272.457 50.2972 270.248 50.2972C266.934 50.2972 263.978 51.3693 261.378 53.5136C258.844 55.6579 256.895 58.2571 255.53 61.3111V74.7616C255.92 76.2561 256.603 77.6207 257.577 78.8553C258.552 80.0249 259.689 81.0645 260.989 81.9742C262.288 82.8839 263.685 83.5987 265.18 84.1185C266.674 84.5734 268.104 84.8008 269.468 84.8008Z" fill="white"/>
<path d="M306.109 21.8365H316.831V78.2705C316.831 80.1548 317.318 81.6493 318.293 82.754C319.268 83.7936 320.632 84.3135 322.387 84.3135C323.101 84.3135 323.914 84.1835 324.823 83.9236C325.798 83.6637 326.708 83.3713 327.552 83.0464L329.112 91.4286C327.552 92.1434 325.7 92.6957 323.556 93.0856C321.412 93.5404 319.495 93.7679 317.806 93.7679C314.102 93.7679 311.21 92.7607 309.131 90.7464C307.117 88.732 306.109 85.873 306.109 82.1692V21.8365Z" fill="white"/>
<path d="M358.428 93.9628C354.465 93.9628 350.858 93.2805 347.609 91.916C344.36 90.4864 341.566 88.5696 339.227 86.1654C336.953 83.7612 335.166 80.9671 333.866 77.7831C332.632 74.5992 332.015 71.2203 332.015 67.6465C332.015 64.0726 332.632 60.6937 333.866 57.5098C335.166 54.2609 336.953 51.4343 339.227 49.0301C341.566 46.5609 344.36 44.644 347.609 43.2795C350.858 41.85 354.497 41.1352 358.526 41.1352C362.489 41.1352 366.063 41.85 369.247 43.2795C372.496 44.709 375.258 46.6259 377.532 49.0301C379.806 51.3693 381.528 54.1309 382.698 57.3149C383.932 60.4338 384.55 63.7153 384.55 67.1591C384.55 67.9389 384.517 68.6861 384.452 69.4009C384.387 70.0507 384.322 70.603 384.257 71.0578H343.418C343.613 73.3321 344.133 75.3789 344.978 77.1983C345.887 79.0177 347.025 80.6097 348.389 81.9742C349.819 83.2738 351.411 84.281 353.165 84.9958C354.984 85.7105 356.869 86.0679 358.818 86.0679C360.248 86.0679 361.645 85.9055 363.009 85.5806C364.439 85.1907 365.738 84.6709 366.908 84.0211C368.078 83.3063 369.117 82.4616 370.027 81.4869C370.937 80.5122 371.651 79.4401 372.171 78.2705L381.333 80.9021C379.579 84.7358 376.655 87.8873 372.561 90.3565C368.532 92.7607 363.822 93.9628 358.428 93.9628ZM373.926 63.6503C373.731 61.506 373.178 59.5241 372.269 57.7047C371.424 55.8853 370.319 54.3583 368.955 53.1237C367.59 51.8242 365.998 50.817 364.179 50.1022C362.36 49.3875 360.443 49.0301 358.428 49.0301C356.414 49.0301 354.497 49.3875 352.678 50.1022C350.923 50.817 349.364 51.8242 347.999 53.1237C346.635 54.3583 345.53 55.8853 344.685 57.7047C343.841 59.5241 343.321 61.506 343.126 63.6503H373.926Z" fill="white"/>
<path d="M395.927 92.9881V23.7859H424.387C427.311 23.7859 430.008 24.4032 432.477 25.6378C434.946 26.8724 437.058 28.5293 438.813 30.6087C440.632 32.623 442.029 34.9297 443.004 37.5289C444.043 40.063 444.563 42.6297 444.563 45.2288C444.563 48.0229 444.076 50.7195 443.101 53.3187C442.192 55.9178 440.86 58.2246 439.105 60.2389C437.416 62.2532 435.369 63.8777 432.965 65.1123C430.56 66.2819 427.896 66.8667 424.972 66.8667H400.898V92.9881H395.927ZM400.898 62.2857H424.777C427.052 62.2857 429.098 61.8309 430.918 60.9212C432.737 59.9465 434.264 58.6794 435.499 57.1199C436.798 55.4955 437.773 53.6761 438.423 51.6617C439.138 49.5824 439.495 47.4381 439.495 45.2288C439.495 42.9546 439.073 40.8103 438.228 38.796C437.448 36.7166 436.344 34.8972 434.914 33.3378C433.549 31.7783 431.925 30.5437 430.041 29.634C428.221 28.7243 426.272 28.2694 424.193 28.2694H400.898V62.2857Z" fill="white"/>
<path d="M455.391 21.8365H460.362V82.9489C460.362 84.8333 460.882 86.3278 461.922 87.4324C463.026 88.5371 464.521 89.0894 466.405 89.0894C467.12 89.0894 467.965 89.0244 468.939 88.8945C469.979 88.6995 470.921 88.4396 471.766 88.1147L472.741 92.0134C471.636 92.4683 470.271 92.8257 468.647 93.0856C467.023 93.4105 465.625 93.5729 464.456 93.5729C461.727 93.5729 459.518 92.7607 457.828 91.1362C456.204 89.4468 455.391 87.205 455.391 84.4109V21.8365Z" fill="white"/>
<path d="M492.701 93.9628C490.362 93.9628 488.185 93.5729 486.171 92.7932C484.156 91.9485 482.369 90.8438 480.81 89.4793C479.315 88.0498 478.146 86.3928 477.301 84.5084C476.456 82.5591 476.034 80.4797 476.034 78.2705C476.034 76.0612 476.554 74.0469 477.593 72.2275C478.633 70.4081 480.063 68.8486 481.882 67.549C483.766 66.1844 486.008 65.1448 488.607 64.43C491.207 63.6503 494.066 63.2604 497.185 63.2604C499.914 63.2604 502.643 63.5203 505.372 64.0401C508.166 64.495 510.668 65.1448 512.877 65.9895V61.0186C512.877 56.2102 511.512 52.409 508.783 49.6149C506.054 46.7558 502.35 45.3263 497.672 45.3263C495.203 45.3263 492.571 45.8461 489.777 46.8858C487.048 47.9255 484.254 49.42 481.395 51.3693L479.543 48.0554C486.041 43.6369 492.214 41.4276 498.062 41.4276C504.17 41.4276 508.978 43.2145 512.487 46.7883C515.996 50.2972 517.75 55.1706 517.75 61.4085V86.1654C517.75 87.7898 518.465 88.6021 519.895 88.6021V92.9881C519.57 93.0531 519.212 93.0856 518.822 93.0856C518.498 93.1506 518.205 93.1831 517.945 93.1831C516.646 93.1831 515.606 92.7607 514.826 91.916C514.047 91.0063 513.592 89.9341 513.462 88.6995V84.5084C511.122 87.5624 508.133 89.9016 504.495 91.5261C500.856 93.1506 496.925 93.9628 492.701 93.9628ZM493.676 90.0641C497.444 90.0641 500.888 89.3493 504.007 87.9198C507.191 86.4903 509.628 84.6059 511.317 82.2666C512.357 80.9021 512.877 79.6025 512.877 78.3679V69.4009C510.538 68.4912 508.101 67.8089 505.567 67.3541C503.033 66.8992 500.401 66.6718 497.672 66.6718C495.138 66.6718 492.831 66.9642 490.752 67.549C488.672 68.0688 486.885 68.8161 485.391 69.7908C483.896 70.7654 482.727 71.9675 481.882 73.3971C481.102 74.7616 480.712 76.2886 480.712 77.9781C480.712 79.6675 481.037 81.2595 481.687 82.754C482.337 84.2485 483.247 85.5481 484.416 86.6527C485.586 87.6924 486.95 88.5371 488.51 89.1869C490.134 89.7717 491.856 90.0641 493.676 90.0641Z" fill="white"/>
<path d="M574 92.9881H569.126V64.7224C569.126 58.1596 568.184 53.3837 566.3 50.3946C564.481 47.4056 561.556 45.9111 557.528 45.9111C555.384 45.9111 553.239 46.301 551.095 47.0807C549.016 47.8605 547.066 48.9651 545.247 50.3946C543.427 51.8242 541.836 53.5136 540.471 55.463C539.106 57.3474 538.099 59.3942 537.449 61.6035V92.9881H532.576V42.3048H537.157V54.3908C538.197 52.4415 539.464 50.687 540.958 49.1276C542.518 47.5031 544.24 46.1385 546.124 45.0339C548.073 43.8643 550.12 42.9871 552.265 42.4023C554.409 41.7525 556.618 41.4276 558.892 41.4276C564.416 41.4276 568.314 43.377 570.589 47.2757C572.863 51.1094 574 56.6326 574 63.8452V92.9881Z" fill="white"/>
<path d="M102.977 0.647705H114.419V115.067H102.977V0.647705Z" fill="white"/>
<path d="M0 37.4252C0 28.3978 7.31815 21.0796 16.3456 21.0796H53.123C62.1504 21.0796 69.4686 28.3978 69.4686 37.4252V74.2027C69.4686 83.2301 62.1504 90.5482 53.123 90.5482H16.3455C7.31815 90.5482 0 83.2301 0 74.2027V37.4252Z" fill="white"/>
</svg>
