<svg width="208" height="19" viewBox="0 0 208 19" fill="none" xmlns="http://www.w3.org/2000/svg">
<path d="M21.5089 8.946C23.1954 7.8764 23.7416 6.2019 23.7416 4.9561C23.7416 2.6625 22.1313 0 18.953 0H0V18.193H19.468C22.1327 18.193 24.3719 16.0147 24.3719 13.3522C24.3719 11.3425 23.1954 9.6772 21.5089 8.946ZM6.1032 4.2765H15.9132C16.4333 4.2765 17.2385 4.72369 17.2385 5.6562C17.2385 6.57996 16.3626 6.951 15.9132 6.951H11.9331L6.1033 7.00976L6.1032 4.2765ZM16.5342 13.9722H6.1022V11.228H16.5332C17.1741 11.228 17.8421 11.8003 17.8421 12.6088C17.8421 13.4074 17.1077 13.9721 16.5332 13.9721" fill="white"/>
<path d="M50.6409 5.58432C50.6409 2.66392 48.0948 0.0493164 45.057 0.0493164H26.86V18.1163H32.8759V11.2952H39.4108L43.3213 18.1163H49.7343L45.7487 11.2267C48.5407 11.0407 50.6409 8.43502 50.6409 5.58432ZM41.5227 6.95172H32.8759V4.33491H41.5227C43.4595 4.33491 43.9882 4.33491 43.9882 5.58401C43.9882 6.82551 43.4594 6.95172 41.5227 6.95172Z" fill="white"/>
<path d="M95.9039 6.95201H85.4529C84.6499 6.95201 84.1505 6.32747 84.1505 5.65502C84.1505 4.95648 84.6488 4.33522 85.4529 4.33522H100.863V0.0493164H84.3119C80.9803 0.0493164 77.8651 1.22112 77.6791 5.21652V5.89656C77.8064 9.55136 79.8487 11.2967 84.1944 11.2967H93.9663C94.6354 11.2967 95.3209 11.8015 95.3209 12.6089C95.3209 13.4684 94.5124 13.9733 94.0827 13.9733H78.4367V18.1177H94.7757C99.8058 18.1177 101.857 16.1418 101.857 12.5555C101.856 9.63835 100.862 6.95195 95.8975 6.95195" fill="white"/>
<path d="M65.7489 0.050293H62.6447C61.5838 0.050293 60.7286 0.688983 60.3445 1.36139L50.6415 18.1164H56.7336L58.5996 14.8979H69.7286L71.5914 18.1164H77.6802L68.0452 1.43939C67.6762 0.814392 66.8092 0.0513916 65.7452 0.0513916L65.7489 0.050293ZM60.6661 11.4224L64.149 5.34669L67.6765 11.4224H60.6661Z" fill="white"/>
<path d="M175.544 0.0493164H171.833C170.833 0.0493164 169.84 0.867536 169.584 1.66832L165.986 11.4206L162.382 1.48011C162.072 0.688004 161.133 0.0493164 160.089 0.0493164H156.476C155.364 0.0493164 154.364 0.924113 154.116 1.78481L149.692 18.1168H155.857L158.605 6.20382L162.955 18.1168H169.023L173.385 6.20382L176.161 18.1168H182.268L177.914 1.85381C177.666 0.979013 176.662 0.0493164 175.544 0.0493164Z" fill="white"/>
<path d="M201.784 11.295C204.769 11.295 207.131 8.55423 207.131 5.65233C207.131 2.66233 204.575 0.0488281 201.466 0.0488281H183.693V18.1158H189.778V11.2947H201.776L201.784 11.295ZM189.786 7.00803V4.33573H197.983C199.845 4.33573 200.493 4.3934 200.493 5.58263C200.493 6.82413 199.916 7.00803 197.983 7.00803H189.786Z" fill="white"/>
<path d="M110.315 18.1166H116.397V4.3341H123.796V0.0493164H102.981V4.3341H110.315V18.1166Z" fill="white"/>
<path d="M125.454 5.52835V12.6551C125.454 15.8464 127.835 18.1172 130.808 18.1172H148.398V13.9706H134.161C132.788 13.9706 131.3 12.8564 131.3 11.2972V7.94815L133.428 11.0425H148.398L145.661 7.19184H131.311V6.6979C131.506 5.5859 132.553 4.2791 134.046 4.2791H148.41V0.0498047H130.876C127.524 0.0498047 125.467 2.79611 125.467 5.52931" fill="white"/>
</svg>
