<svg width="157" height="41" viewBox="0 0 157 41" fill="none" xmlns="http://www.w3.org/2000/svg">
<path d="M42.5927 32.4617C38.011 32.4617 35.691 29.1603 35.691 24.5944C35.691 19.9728 38.0091 16.6156 42.5927 16.6156C47.1216 16.6156 49.4944 19.9728 49.4944 24.5944C49.4944 29.1603 47.1216 32.4617 42.5927 32.4617ZM42.5927 8.36391C40.5207 8.36039 38.469 8.78066 36.5588 9.59994C34.6486 10.4192 32.9188 11.6209 31.4714 13.1339C30.0241 14.6469 28.8886 16.4406 28.1319 18.4091C27.3753 20.3775 27.0129 22.4807 27.0662 24.5944C26.9654 26.7151 27.296 28.8342 28.037 30.8183C28.778 32.8023 29.9134 34.6083 31.3719 36.1227C32.8304 37.637 34.5802 38.8267 36.5113 39.6172C38.4425 40.4076 40.513 40.7815 42.5927 40.7153C44.6567 40.7227 46.7014 40.3087 48.6063 39.4977C50.5112 38.6867 52.2379 37.4951 53.6848 35.993C55.1317 34.4908 56.2696 32.7086 57.0314 30.751C57.7933 28.7935 58.1637 26.7002 58.121 24.5944C58.2235 22.4679 57.8949 20.3427 57.1558 18.3518C56.4167 16.3608 55.2829 14.5469 53.8254 13.0235C52.3679 11.5001 50.618 10.3 48.6853 9.49822C46.7525 8.69647 44.6784 8.31032 42.5927 8.36391Z" fill="white"/>
<path d="M19.95 0.550791C8.89785 0.550791 0 8.47386 0 21.4029C0 34.6625 8.73586 40.9348 18.2796 40.9348C21.8032 41.0156 25.2953 40.2425 28.4692 38.6788C29.3863 38.1292 29.5483 37.6891 28.9005 36.8071C27.843 35.3389 26.9225 33.7729 26.1511 32.1297C25.912 31.5532 25.701 31.1381 25.1907 31.1381C24.9632 31.1489 24.7399 31.2051 24.5335 31.3034C23.0028 31.9931 21.3536 32.3673 19.6807 32.4045C13.5868 32.4045 9.11249 29.2683 8.94678 21.401C8.78483 13.3684 13.2064 9.18681 19.7842 9.18681C22.0238 9.07223 24.2626 9.42802 26.362 10.2322C26.55 10.3109 26.7521 10.3483 26.9552 10.3417C27.3865 10.3417 27.7084 9.95738 27.9796 9.57305C28.7383 8.4988 29.1527 7.21135 29.166 5.88727C29.1848 5.1318 29.0167 4.38368 28.6774 3.71196C28.3381 3.04024 27.8384 2.46658 27.2245 2.04393C24.9786 0.874479 22.46 0.360439 19.9462 0.558474" fill="white"/>
<path d="M153.317 0.000990587C151.969 0.000990587 148.549 0.441059 148.549 4.12876V38.8457C148.549 39.8911 148.704 40.3831 149.619 40.3831H155.711C156.628 40.3831 156.982 39.8988 156.982 38.8457V1.92651C157.029 1.65435 156.983 1.37381 156.85 1.13295C156.717 0.892102 156.506 0.705933 156.253 0.606323C155.328 0.190323 154.325 -0.0161912 153.314 0.000990587" fill="white"/>
<path d="M74.4214 8.36423C65.8494 8.36423 60.3093 13.7007 60.3093 22.0081V38.8439C60.3093 39.8893 60.6576 40.3813 61.5728 40.3813H67.6101C68.5272 40.3813 68.7401 39.897 68.7401 38.8439V23.8222C68.7401 21.5162 68.917 16.835 74.4704 16.835C80.0238 16.835 79.7696 21.4009 79.7696 23.7127V38.8439C79.7696 39.8893 80.0614 40.3813 80.9785 40.3813H87.0159C87.933 40.3813 88.2023 39.897 88.2023 38.8439V21.7871C88.2023 13.4778 83.2571 8.36229 74.4158 8.36229" fill="white"/>
<path d="M141.762 8.36417C140.469 8.36417 136.866 8.80424 136.866 12.49V25.5286C136.866 27.8346 137.309 32.5158 131.755 32.5158C126.202 32.5158 126.483 27.9499 126.483 25.6381V10.2993C126.5 10.0094 126.421 9.72206 126.26 9.48288C126.098 9.2437 125.863 9.06638 125.592 8.97909C124.603 8.55694 123.538 8.35077 122.466 8.37379C121.17 8.37379 117.398 8.81383 117.398 12.4996V27.6309C117.398 35.9383 122.586 41 131.268 41C139.84 41 145.299 35.4982 145.299 27.1889V10.2993C145.299 9.53064 145.145 9.25389 144.606 8.97909C143.714 8.55792 142.739 8.35087 141.757 8.37379" fill="white"/>
<path d="M103.196 8.03341C99.2599 8.03341 90.2021 9.13451 90.2021 18.1568C90.2021 25.0883 94.345 26.8043 100.446 27.7863L103.459 28.2821C106.472 28.7779 107.557 29.1738 107.557 30.8802C107.557 33.0863 104.265 33.094 102.473 33.094H102.226C99.1282 33.0008 96.0673 32.3832 93.168 31.2665C93.026 31.2289 92.8796 31.2128 92.7331 31.2184C92.5133 31.218 92.3007 31.2978 92.1335 31.4433C91.9664 31.5889 91.8557 31.7906 91.8216 32.0121L90.3659 36.97C90.2401 37.2335 90.2206 37.5368 90.3114 37.8149C90.4023 38.0929 90.5962 38.3236 90.8518 38.4574C94.5591 40.031 98.5364 40.8358 102.552 40.8249C111.879 40.8249 115.815 35.8746 115.815 30.371C115.815 23.9333 112.255 21.954 104.704 20.7434L101.578 20.2476C98.9417 19.8075 98.019 19.4232 98.019 17.7725C98.019 15.7912 100.606 15.626 103.842 15.626C105.746 15.6477 107.643 15.8692 109.502 16.287C111.12 16.6175 111.762 17.0019 112.197 17.0019C112.683 17.0019 113.007 16.5618 113.222 16.2332C113.581 15.7824 113.849 15.2635 114.011 14.7064C114.173 14.1494 114.225 13.5651 114.165 12.9874C114.105 12.4096 113.933 11.8496 113.66 11.3398C113.387 10.8299 113.018 10.3802 112.574 10.0166C110.527 8.42159 105.943 8.03532 103.192 8.03532" fill="white"/>
</svg>
