<svg width="32" height="32" viewBox="0 0 53 53" fill="none" xmlns="http://www.w3.org/2000/svg">
<path d="M26.2318 17.6701C21.4357 17.6701 17.5217 21.5841 17.5217 26.3803C17.5217 31.1765 21.4357 35.0906 26.2318 35.0906C31.0279 35.0906 34.9419 31.1765 34.9419 26.3803C34.9419 21.5841 31.0279 17.6701 26.2318 17.6701ZM52.3555 26.3803C52.3555 22.7734 52.3882 19.1991 52.1857 15.5987C51.9831 11.4167 51.0291 7.70522 47.9711 4.64716C44.9065 1.58256 41.2016 0.635081 37.0198 0.432517C33.4129 0.229953 29.8387 0.262625 26.2383 0.262625C22.6314 0.262625 19.0572 0.229953 15.4569 0.432517C11.275 0.635081 7.56355 1.58909 4.50554 4.64716C1.44099 7.71176 0.493534 11.4167 0.290973 15.5987C0.0884131 19.2056 0.121084 22.7799 0.121084 26.3803C0.121084 29.9808 0.0884131 33.5616 0.290973 37.162C0.493534 41.344 1.44753 45.0554 4.50554 48.1135C7.57008 51.1781 11.275 52.1256 15.4569 52.3282C19.0638 52.5307 22.638 52.4981 26.2383 52.4981C29.8452 52.4981 33.4194 52.5307 37.0198 52.3282C41.2016 52.1256 44.9131 51.1716 47.9711 48.1135C51.0356 45.0489 51.9831 41.344 52.1857 37.162C52.3947 33.5616 52.3555 29.9873 52.3555 26.3803ZM26.2318 39.7822C18.8155 39.7822 12.8301 33.7968 12.8301 26.3803C12.8301 18.9639 18.8155 12.9784 26.2318 12.9784C33.6481 12.9784 39.6334 18.9639 39.6334 26.3803C39.6334 33.7968 33.6481 39.7822 26.2318 39.7822ZM40.1823 15.5595C38.4507 15.5595 37.0524 14.1611 37.0524 12.4295C37.0524 10.6979 38.4507 9.2996 40.1823 9.2996C41.9139 9.2996 43.3122 10.6979 43.3122 12.4295C43.3127 12.8407 43.2321 13.248 43.075 13.6279C42.9179 14.0079 42.6874 14.3532 42.3966 14.6439C42.1059 14.9346 41.7606 15.1652 41.3807 15.3223C41.0007 15.4794 40.5935 15.56 40.1823 15.5595Z" fill="black"/>
</svg>
