<svg width="216" height="111" viewBox="0 0 216 111" fill="none" xmlns="http://www.w3.org/2000/svg">
<path d="M0 55.3066C0 44.2195 2.0669 34.4861 6.20071 26.1063C10.4637 17.7265 16.2123 11.2805 23.4464 6.7683C30.6806 2.2561 38.7544 0 47.668 0C55.2897 0 61.9425 1.54704 67.6265 4.64111C73.4397 7.7352 77.8964 11.7962 80.9968 16.824V1.54704H114.132V109.453H80.9968V94.176C77.7672 99.2038 73.2459 103.265 67.4327 106.359C61.7487 109.453 55.0959 111 47.4742 111C38.6899 111 30.6806 108.744 23.4464 104.232C16.2123 99.5906 10.4637 93.0801 6.20071 84.7003C2.0669 76.1916 0 66.3937 0 55.3066ZM80.9968 55.5C80.9968 47.2491 78.6715 40.7387 74.021 35.9686C69.4996 31.1986 63.9448 28.8136 57.3566 28.8136C50.7683 28.8136 45.1489 31.1986 40.4984 35.9686C35.977 40.6098 33.7164 47.0558 33.7164 55.3066C33.7164 63.5575 35.977 70.1324 40.4984 75.0314C45.1489 79.8014 50.7683 82.1864 57.3566 82.1864C63.9448 82.1864 69.4996 79.8014 74.021 75.0314C78.6715 70.2613 80.9968 63.7509 80.9968 55.5Z" fill="white"/>
<path d="M169.107 82.1864H216V109.453H132.097V83.1533L177.052 28.8136H132.484V1.54704H215.031V27.8467L169.107 82.1864Z" fill="white"/>
</svg>
