<svg width="256" height="31" viewBox="0 0 256 31" fill="none" xmlns="http://www.w3.org/2000/svg">
<path d="M151.046 1.98438C144.038 1.98438 138.347 6.51619 138.347 14.473C138.347 22.4298 144.038 26.9615 151.046 26.9615H171.389C178.397 26.9615 184.491 22.4298 184.491 14.473C184.491 6.51619 178.397 1.98438 171.389 1.98438H151.046Z" fill="#FFBE00"/>
<path d="M16.2663 16.9572C15.7142 16.9572 15.247 17.1243 14.886 17.4375C14.5462 17.7299 14.1852 18.1059 13.7606 18.5235C13.3359 18.983 12.7837 19.3797 12.1042 19.6929C11.4246 20.0063 10.6177 20.1733 9.68335 20.1733C8.1544 20.1733 6.85904 19.6094 5.86097 18.5235C4.84167 17.4166 4.33203 16.0592 4.33203 14.4511C4.33203 12.8639 4.84167 11.5065 5.86097 10.3996C6.85904 9.2928 8.1544 8.74982 9.68335 8.74982C10.4478 8.74982 11.1486 8.87512 11.7432 9.14661C12.3378 9.39722 12.8262 9.6896 13.1872 9.98197C13.6756 10.3996 14.1004 10.7964 14.4188 11.1723C14.7798 11.5691 15.2896 11.778 15.9478 11.778C16.4362 11.778 16.8609 11.6109 17.1582 11.2768C17.4767 10.9426 17.6254 10.525 17.6254 10.0237C17.6254 9.58517 17.498 9.14661 17.2431 8.70805C16.9884 8.29037 16.6486 7.8518 16.2239 7.45501C15.5019 6.74496 14.5675 6.11844 13.442 5.57546C12.3165 5.03248 11.0424 4.76099 9.59841 4.76099C6.90151 4.76099 4.60809 5.72165 2.78184 7.6012C0.934358 9.48076 0 11.778 0 14.4302C0 17.1034 0.934359 19.4006 2.76061 21.2801C4.58686 23.1597 6.90151 24.0995 9.59841 24.0995C11 24.0995 12.2741 23.8489 13.3996 23.3895C14.5251 22.9091 15.4381 22.3244 16.1389 21.6352C16.6698 21.1549 17.0732 20.6327 17.3918 20.1316C17.7103 19.6304 17.859 19.1082 17.859 18.607C17.859 18.1476 17.7103 17.7508 17.3918 17.4375C17.0945 17.1243 16.7122 16.9572 16.2663 16.9572Z" fill="#8600A7"/>
<path d="M30.5777 4.76099C27.8808 4.76099 25.6086 5.72165 23.7823 7.6012C21.9561 9.48076 21.043 11.778 21.043 14.4302C21.043 17.1034 21.9561 19.4006 23.7823 21.2801C25.6086 23.1597 27.8808 24.0995 30.5777 24.0995C33.2958 24.0995 35.5892 23.1388 37.3943 21.2801C39.2205 19.4006 40.1336 17.1034 40.1336 14.4302C40.1336 11.7989 39.2205 9.50164 37.3943 7.6012C35.5892 5.72165 33.2745 4.76099 30.5777 4.76099ZM26.819 10.2952C27.7958 9.16749 29.0487 8.60363 30.5564 8.60363C32.0854 8.60363 33.3595 9.16749 34.3363 10.2952C35.3132 11.423 35.8016 12.8222 35.8016 14.4302C35.8016 16.0383 35.3132 17.4585 34.3363 18.5861C33.3595 19.7139 32.0854 20.2986 30.5564 20.2986C29.0487 20.2986 27.7746 19.7348 26.819 18.5861C25.8422 17.4585 25.3538 16.0592 25.3538 14.4302C25.3538 12.8013 25.8422 11.423 26.819 10.2952Z" fill="#8600A7"/>
<path d="M66.8917 4.76099C65.469 4.76099 64.1948 5.11601 63.1119 5.82607C62.0926 6.49435 61.3281 7.26705 60.8185 8.16507C60.2239 7.12087 59.4169 6.30639 58.3764 5.70076C57.2933 5.07424 55.998 4.76099 54.5115 4.76099C53.2586 4.76099 52.1331 5.05336 51.1775 5.65899C50.3281 6.18109 49.6698 6.80761 49.2239 7.51766L49.1602 6.80761C49.0965 6.16021 48.8629 5.65899 48.4807 5.30397C48.0984 4.94894 47.5888 4.76099 47.0154 4.76099C46.4208 4.76099 45.9324 4.96983 45.5714 5.34574C45.1892 5.74253 44.998 6.24375 44.998 6.8285V22.0737C44.998 22.6376 45.2104 23.118 45.6563 23.5147C46.0811 23.9116 46.6119 24.0995 47.2278 24.0995C47.8436 24.0995 48.3532 23.9116 48.7992 23.5147C49.2239 23.118 49.4575 22.6376 49.4575 22.0737V13.7202C49.4575 12.1539 49.861 10.88 50.6467 9.89843C51.4324 8.93778 52.4942 8.43656 53.8108 8.43656C54.915 8.43656 55.8069 8.83335 56.4227 9.64783C57.0597 10.4623 57.3783 11.59 57.3783 13.0101V22.0947C57.3783 22.6586 57.5906 23.1388 58.0366 23.5357C58.4614 23.9324 58.9922 24.1204 59.608 24.1204C60.2239 24.1204 60.7335 23.9324 61.1794 23.5357C61.6041 23.1388 61.8377 22.6586 61.8377 22.0947V13.7202C61.8377 12.1539 62.2412 10.88 63.0269 9.89843C63.8127 8.93778 64.8744 8.43656 66.191 8.43656C67.2953 8.43656 68.1872 8.83335 68.8029 9.64783C69.44 10.4623 69.7586 11.59 69.7586 13.0101V22.0947C69.7586 22.6586 69.9709 23.1388 70.4169 23.5357C70.8415 23.9324 71.3724 24.1204 71.9883 24.1204C72.6041 24.1204 73.1138 23.9324 73.5597 23.5357C73.9844 23.1388 74.218 22.6586 74.218 22.0947V12.3836C74.218 10.0655 73.5597 8.20683 72.2431 6.8285C70.8628 5.47104 69.079 4.76099 66.8917 4.76099Z" fill="#8600A7"/>
<path d="M89.6155 4.76099C88.3838 4.76099 87.2371 5.01159 86.1966 5.49192C85.2197 5.93048 84.3703 6.57789 83.6908 7.37148L83.6483 7.0791C83.6058 6.53612 83.4147 6.07668 83.1174 5.76342C82.7989 5.42927 82.3529 5.2622 81.7584 5.2622C81.1638 5.2622 80.6966 5.42927 80.3568 5.7843C80.0171 6.13932 79.8472 6.57789 79.8472 7.12087V28.7566C79.8472 29.3205 80.0595 29.7799 80.463 30.1558C80.8665 30.5317 81.3974 30.7197 81.9919 30.7197C82.6078 30.7197 83.1174 30.5317 83.4997 30.1558C83.9031 29.7799 84.0943 29.3205 84.0943 28.7566V21.8232C84.7738 22.5332 85.5807 23.0971 86.4726 23.473C87.4494 23.8907 88.49 24.1204 89.5518 24.1204C92.0787 24.1204 94.2448 23.1597 95.9649 21.2801C97.6849 19.4006 98.5556 17.0825 98.5556 14.4094C98.5556 11.6944 97.6849 9.39722 95.9861 7.55943C94.3085 5.70076 92.1637 4.76099 89.6155 4.76099ZM94.2448 14.4094C94.2448 16.0592 93.7564 17.4585 92.7796 18.5653C91.8027 19.6721 90.5498 20.236 89.0421 20.236C87.4919 20.236 86.1753 19.6721 85.156 18.5653C84.1367 17.4585 83.6058 16.0592 83.6058 14.4511C83.6058 12.7804 84.1155 11.3812 85.1348 10.2952C86.1541 9.20926 87.4707 8.6454 89.0209 8.6454C90.5286 8.6454 91.8027 9.18838 92.7583 10.2743C93.7351 11.3812 94.2448 12.7595 94.2448 14.4094Z" fill="#8600A7"/>
<path d="M112.719 4.76099C111.487 4.76099 110.383 5.11601 109.449 5.7843C108.62 6.38993 107.983 7.0791 107.559 7.8518L107.431 6.66143C107.368 6.03491 107.155 5.57546 106.794 5.24132C106.433 4.90717 105.987 4.76099 105.478 4.76099C104.84 4.76099 104.331 4.96983 103.97 5.34574C103.609 5.74253 103.418 6.26463 103.418 6.91203V22.0737C103.418 22.6376 103.63 23.118 104.076 23.5147C104.501 23.9116 105.032 24.0995 105.647 24.0995C106.263 24.0995 106.773 23.9116 107.219 23.5147C107.644 23.118 107.877 22.6376 107.877 22.0737V13.7202C107.877 12.1121 108.259 10.9217 109.045 10.1699C109.81 9.4181 110.744 9.02131 111.827 9.02131C112.039 9.02131 112.273 9.04219 112.485 9.06308C112.719 9.08396 112.931 9.10485 113.165 9.10485C113.802 9.10485 114.312 8.89601 114.715 8.47833C115.118 8.06064 115.31 7.53855 115.31 6.91203C115.31 6.28552 115.097 5.7843 114.651 5.3875C114.227 4.96983 113.568 4.76099 112.719 4.76099Z" fill="#8600A7"/>
<path d="M133.336 4.76099C132.763 4.76099 132.296 4.92806 131.913 5.28308C131.531 5.63811 131.319 6.09756 131.276 6.66143L131.234 7.16264C130.554 6.4317 129.769 5.84695 128.834 5.42927C127.857 4.99071 126.774 4.76099 125.649 4.76099C123.164 4.76099 121.041 5.72165 119.342 7.6012C117.643 9.48076 116.794 11.778 116.794 14.4302C116.794 17.1034 117.643 19.4006 119.321 21.2593C120.998 23.1388 123.122 24.0995 125.606 24.0995C126.732 24.0995 127.815 23.8698 128.792 23.4522C129.705 23.0553 130.512 22.4706 131.213 21.7188L131.255 22.2826C131.298 22.8673 131.51 23.3059 131.892 23.6192C132.274 23.9324 132.763 24.0995 133.336 24.0995C133.931 24.0995 134.398 23.9116 134.716 23.5565C135.056 23.2015 135.205 22.7421 135.205 22.1782V6.72407C135.205 6.13932 135.035 5.67988 134.674 5.30397C134.377 4.94894 133.909 4.76099 133.336 4.76099ZM131.552 14.3676C131.552 16.0174 131.043 17.4375 130.023 18.5861C129.025 19.7348 127.73 20.2986 126.222 20.2986C124.736 20.2986 123.504 19.7348 122.548 18.5861C121.593 17.4585 121.104 16.0592 121.104 14.4302C121.104 12.8013 121.593 11.4021 122.548 10.2952C123.504 9.16749 124.736 8.60363 126.222 8.60363C127.73 8.60363 129.004 9.16749 130.023 10.2952C131.043 11.423 131.552 12.8013 131.552 14.3676Z" fill="#8600A7"/>
<path d="M179.823 16.9572C179.271 16.9572 178.803 17.1243 178.442 17.4375C178.103 17.7299 177.742 18.1059 177.317 18.5235C176.892 18.983 176.34 19.3797 175.661 19.6929C174.981 20.0063 174.174 20.1733 173.24 20.1733C171.711 20.1733 170.415 19.6094 169.417 18.5235C168.398 17.4166 167.888 16.0592 167.888 14.4511C167.888 12.8639 168.398 11.5065 169.417 10.3996C170.415 9.2928 171.711 8.74982 173.24 8.74982C174.004 8.74982 174.705 8.87512 175.3 9.14661C175.894 9.39722 176.383 9.6896 176.744 9.98197C177.232 10.3996 177.657 10.7964 177.975 11.1723C178.336 11.5691 178.846 11.778 179.504 11.778C179.993 11.778 180.417 11.6109 180.715 11.2768C181.033 10.9426 181.182 10.525 181.182 10.0237C181.182 9.58517 181.054 9.14661 180.8 8.70805C180.545 8.29037 180.205 7.8518 179.78 7.45501C179.058 6.74496 178.124 6.11844 176.998 5.57546C175.873 5.03248 174.599 4.76099 173.155 4.76099C170.458 4.76099 168.164 5.72165 166.338 7.6012C164.491 9.48076 163.556 11.778 163.556 14.4302C163.556 17.1034 164.491 19.4006 166.317 21.2801C168.143 23.1597 170.458 24.0995 173.155 24.0995C174.556 24.0995 175.83 23.8489 176.956 23.3895C178.081 22.9091 178.995 22.3244 179.695 21.6352C180.226 21.1549 180.63 20.6327 180.948 20.1316C181.267 19.6304 181.415 19.1082 181.415 18.607C181.415 18.1476 181.267 17.7508 180.948 17.4375C180.672 17.1243 180.269 16.9572 179.823 16.9572Z" fill="#8600A7"/>
<path d="M202.904 15.1821C203.35 14.7435 203.584 14.0752 203.584 13.2399C203.584 10.88 202.798 8.85424 201.248 7.22529C199.698 5.59634 197.638 4.76099 195.132 4.76099C192.584 4.76099 190.397 5.70076 188.634 7.55943C186.872 9.4181 185.98 11.7571 185.98 14.4929C185.98 17.3123 186.893 19.6512 188.698 21.4263C190.503 23.2015 192.902 24.0995 195.812 24.0995C196.576 24.0995 197.511 23.9951 198.594 23.8071C199.677 23.6192 200.632 23.3268 201.46 22.93C202.055 22.6376 202.522 22.3244 202.862 21.9693C203.202 21.6143 203.372 21.1549 203.372 20.591C203.372 20.1525 203.223 19.7766 202.904 19.4842C202.586 19.1917 202.204 19.0455 201.758 19.0455C201.375 19.0455 201.036 19.1292 200.717 19.2962C200.42 19.4424 200.016 19.6094 199.528 19.7556C199.146 19.8809 198.679 20.0063 198.126 20.0898C197.574 20.1942 196.895 20.236 196.13 20.236C194.474 20.236 193.136 19.8391 192.159 19.0665C191.204 18.3146 190.588 17.2287 190.354 15.8712H200.972C201.8 15.8712 202.458 15.6415 202.904 15.1821ZM195.047 8.47833C196.321 8.47833 197.362 8.83335 198.169 9.52252C198.933 10.1908 199.379 11.1932 199.485 12.4463H190.46C190.736 11.2141 191.267 10.2326 192.053 9.5434C192.86 8.83335 193.858 8.47833 195.047 8.47833Z" fill="#8600A7"/>
<path d="M217.408 4.76099C216.177 4.76099 215.072 5.11601 214.138 5.7843C213.31 6.38993 212.673 7.0791 212.248 7.8518L212.121 6.66143C212.057 6.03491 211.845 5.57546 211.484 5.24132C211.123 4.90717 210.677 4.76099 210.167 4.76099C209.53 4.76099 209.02 4.96983 208.659 5.34574C208.298 5.74253 208.107 6.26463 208.107 6.91203V22.0737C208.107 22.6376 208.32 23.118 208.765 23.5147C209.19 23.9116 209.721 24.0995 210.337 24.0995C210.953 24.0995 211.462 23.9116 211.908 23.5147C212.333 23.118 212.567 22.6376 212.567 22.0737V13.7202C212.567 12.1121 212.949 10.9217 213.735 10.1699C214.499 9.4181 215.433 9.02131 216.516 9.02131C216.729 9.02131 216.962 9.04219 217.175 9.06308C217.408 9.08396 217.621 9.10485 217.854 9.10485C218.491 9.10485 219.001 8.89601 219.404 8.47833C219.808 8.06064 219.999 7.53855 219.999 6.91203C219.999 6.28552 219.787 5.7843 219.341 5.3875C218.916 4.96983 218.258 4.76099 217.408 4.76099Z" fill="#8600A7"/>
<path d="M233.742 19.6518C233.551 19.6518 233.381 19.6726 233.212 19.6935C233.063 19.7353 232.914 19.7562 232.808 19.7771C232.575 19.8398 232.362 19.9023 232.15 19.965C231.937 20.0277 231.683 20.0485 231.385 20.0485C230.642 20.0485 230.047 19.8398 229.665 19.4221C229.262 19.0044 229.071 18.3988 229.071 17.6052V9.10539H232.298C232.914 9.10539 233.424 8.91744 233.806 8.56241C234.21 8.20739 234.401 7.70617 234.401 7.12142C234.401 6.51578 234.188 6.05634 233.785 5.74308C233.381 5.42982 232.872 5.28363 232.277 5.28363H229.049V2.08839C229.049 1.48276 228.837 0.981545 228.455 0.58475C228.051 0.187955 227.52 0 226.862 0C226.204 0 225.673 0.208839 225.27 0.58475C224.866 0.960661 224.675 1.48276 224.675 2.08839V5.26275H224.165C223.549 5.26275 223.061 5.42982 222.658 5.76396C222.254 6.09811 222.042 6.55755 222.042 7.1423C222.042 7.72705 222.254 8.20739 222.636 8.56241C223.04 8.91744 223.549 9.10539 224.144 9.10539H224.654V17.7931C224.654 19.7562 225.227 21.3225 226.331 22.4293C227.436 23.5571 229.007 24.121 230.961 24.121C231.576 24.121 232.15 24.0583 232.659 23.9538C233.169 23.8494 233.615 23.7033 233.976 23.5153C234.486 23.2856 234.868 22.9723 235.144 22.5964C235.42 22.2205 235.547 21.8029 235.547 21.3643C235.547 20.8839 235.378 20.4662 235.038 20.1322C234.74 19.8188 234.295 19.6518 233.742 19.6518Z" fill="#8600A7"/>
<path d="M255.505 5.30397C255.144 4.94894 254.677 4.76099 254.125 4.76099C253.552 4.76099 253.084 4.92806 252.702 5.28308C252.32 5.63811 252.107 6.09756 252.065 6.66143L252.023 7.16264C251.343 6.4317 250.557 5.84695 249.623 5.42927C248.646 4.99071 247.563 4.76099 246.438 4.76099C243.953 4.76099 241.83 5.72165 240.131 7.6012C238.432 9.48076 237.583 11.778 237.583 14.4302C237.583 17.1034 238.432 19.4006 240.11 21.2593C241.787 23.1388 243.911 24.0995 246.395 24.0995C247.521 24.0995 248.604 23.8698 249.58 23.4522C250.494 23.0553 251.301 22.4706 252.001 21.7188L252.044 22.2826C252.086 22.8673 252.299 23.3059 252.681 23.6192C253.063 23.9324 253.552 24.0995 254.125 24.0995C254.719 24.0995 255.187 23.9116 255.505 23.5565C255.845 23.2015 255.994 22.7421 255.994 22.1782V6.72407C256.036 6.13932 255.866 5.67988 255.505 5.30397ZM252.341 14.3676C252.341 16.0174 251.831 17.4375 250.812 18.5861C249.814 19.7348 248.519 20.2986 247.011 20.2986C245.525 20.2986 244.293 19.7348 243.337 18.5861C242.382 17.4585 241.893 16.0592 241.893 14.4302C241.893 12.8013 242.382 11.4021 243.337 10.2952C244.293 9.16749 245.525 8.60363 247.011 8.60363C248.519 8.60363 249.793 9.16749 250.812 10.2952C251.831 11.423 252.341 12.8013 252.341 14.3676Z" fill="#8600A7"/>
</svg>
