<svg width="232" height="30" viewBox="0 0 232 30" fill="none" xmlns="http://www.w3.org/2000/svg">
<path d="M46.9005 29.2599C46.0976 29.2599 45.4607 29.0516 44.99 28.6351C44.547 28.2186 44.3254 27.6329 44.3254 26.8781V4.11443C44.3254 3.35954 44.547 2.77386 44.99 2.35737C45.4607 1.94088 46.0976 1.73264 46.9005 1.73264H61.8943C62.6973 1.73264 63.3203 1.90184 63.7633 2.24023C64.2064 2.57863 64.4279 3.06019 64.4279 3.68492C64.4279 4.33569 64.2064 4.84328 63.7633 5.20771C63.3203 5.5461 62.6973 5.7153 61.8943 5.7153H49.5587V13.2902H61.0636C61.8666 13.2902 62.4896 13.4594 62.9327 13.7978C63.3757 14.1362 63.5972 14.6307 63.5972 15.2815C63.5972 15.9062 63.3757 16.3878 62.9327 16.7262C62.4896 17.0646 61.8666 17.2338 61.0636 17.2338H49.5587V25.2772H61.8943C62.6973 25.2772 63.3203 25.4594 63.7633 25.8238C64.2064 26.1622 64.4279 26.6568 64.4279 27.3076C64.4279 27.9323 64.2064 28.4139 63.7633 28.7523C63.3203 29.0907 62.6973 29.2599 61.8943 29.2599H46.9005Z" fill="white"/>
<path d="M85.2724 1.53741C86.0477 1.53741 86.6846 1.74566 87.183 2.16214C87.6814 2.57863 87.9306 3.12527 87.9306 3.80206V27.1514C87.9306 27.8542 87.6952 28.4139 87.2245 28.8303C86.7538 29.2468 86.1308 29.4551 85.3555 29.4551C84.5802 29.4551 83.9572 29.2468 83.4864 28.8303C83.0157 28.4139 82.7804 27.8542 82.7804 27.1514V26.1752C82.1712 27.2425 81.2851 28.0755 80.1222 28.6742C78.9869 29.2729 77.6855 29.5722 76.218 29.5722C74.4736 29.5722 72.9091 29.1557 71.5247 28.3228C70.1679 27.4898 69.1018 26.3184 68.3265 24.8086C67.5789 23.2728 67.2051 21.5158 67.2051 19.5375C67.2051 17.5592 67.5789 15.8281 68.3265 14.3444C69.1018 12.8607 70.1679 11.7153 71.5247 10.9084C72.8814 10.1014 74.4459 9.69796 76.218 9.69796C77.6855 9.69796 78.9869 9.9843 80.1222 10.557C81.2575 11.1296 82.1297 11.9366 82.7388 12.9778V3.72397C82.7388 3.07321 82.9603 2.5526 83.4034 2.16214C83.8741 1.74566 84.4971 1.53741 85.2724 1.53741ZM77.5886 25.7848C79.25 25.7848 80.5237 25.2512 81.4097 24.1839C82.3235 23.1167 82.7804 21.5939 82.7804 19.6156C82.7804 17.6372 82.3235 16.1275 81.4097 15.0863C80.5237 14.019 79.2638 13.4854 77.6302 13.4854C75.9688 13.4854 74.6812 14.006 73.7675 15.0472C72.8537 16.0884 72.3969 17.5852 72.3969 19.5375C72.3969 21.5158 72.8537 23.0516 73.7675 24.1449C74.6812 25.2381 75.955 25.7848 77.5886 25.7848Z" fill="white"/>
<path d="M95.8464 29.4941C95.0987 29.4941 94.4757 29.2989 93.9773 28.9084C93.5066 28.4919 93.2713 27.9063 93.2713 27.1514V12.0797C93.2713 11.3249 93.5066 10.7522 93.9773 10.3617C94.4757 9.97128 95.0987 9.77605 95.8464 9.77605C96.594 9.77605 97.217 9.97128 97.7154 10.3617C98.2138 10.7522 98.463 11.3249 98.463 12.0797V27.1514C98.463 27.9063 98.2138 28.4919 97.7154 28.9084C97.217 29.2989 96.594 29.4941 95.8464 29.4941ZM95.8464 6.30099C94.9049 6.30099 94.1573 6.06671 93.6035 5.59816C93.0497 5.10359 92.7728 4.46584 92.7728 3.68492C92.7728 2.90401 93.0497 2.27928 93.6035 1.81073C94.1573 1.34218 94.9049 1.10791 95.8464 1.10791C96.7601 1.10791 97.4939 1.34218 98.0477 1.81073C98.6291 2.27928 98.9199 2.90401 98.9199 3.68492C98.9199 4.46584 98.643 5.10359 98.0892 5.59816C97.5354 6.06671 96.7878 6.30099 95.8464 6.30099Z" fill="white"/>
<path d="M114.367 25.8629C115.751 25.941 116.443 26.5267 116.443 27.6199C116.443 28.2447 116.166 28.7262 115.613 29.0646C115.087 29.377 114.325 29.5071 113.328 29.4551L112.207 29.377C107.555 29.0646 105.229 26.7219 105.229 22.3488V13.8368H103.152C102.405 13.8368 101.823 13.6806 101.408 13.3683C101.02 13.0559 100.827 12.6004 100.827 12.0017C100.827 11.403 101.02 10.9474 101.408 10.6351C101.823 10.3227 102.405 10.1665 103.152 10.1665H105.229V6.57431C105.229 5.87148 105.464 5.31183 105.935 4.89534C106.406 4.47885 107.043 4.27061 107.846 4.27061C108.621 4.27061 109.244 4.47885 109.715 4.89534C110.186 5.31183 110.421 5.87148 110.421 6.57431V10.1665H113.951C114.699 10.1665 115.267 10.3227 115.654 10.6351C116.069 10.9474 116.277 11.403 116.277 12.0017C116.277 12.6004 116.069 13.0559 115.654 13.3683C115.267 13.6806 114.699 13.8368 113.951 13.8368H110.421V22.7002C110.421 24.6264 111.362 25.6546 113.245 25.7848L114.367 25.8629Z" fill="white"/>
<path d="M156.882 1.53741C157.657 1.53741 158.28 1.77169 158.751 2.24023C159.222 2.68275 159.457 3.28145 159.457 4.03634V27.1514C159.457 27.8802 159.235 28.4529 158.792 28.8694C158.349 29.2859 157.768 29.4941 157.048 29.4941C156.328 29.4941 155.76 29.2859 155.345 28.8694C154.93 28.4529 154.722 27.8802 154.722 27.1514V11.0646L147.661 23.6373C147.329 24.2099 146.969 24.6394 146.581 24.9258C146.194 25.1861 145.737 25.3162 145.211 25.3162C144.685 25.3162 144.228 25.1861 143.84 24.9258C143.452 24.6655 143.093 24.236 142.76 23.6373L135.658 11.2598V27.1514C135.658 27.8542 135.436 28.4269 134.993 28.8694C134.578 29.2859 134.01 29.4941 133.291 29.4941C132.571 29.4941 132.003 29.2859 131.588 28.8694C131.172 28.4529 130.965 27.8802 130.965 27.1514V4.03634C130.965 3.28145 131.186 2.68275 131.629 2.24023C132.1 1.77169 132.723 1.53741 133.498 1.53741C134.578 1.53741 135.423 2.09707 136.032 3.21638L145.252 19.7327L154.431 3.21638C155.04 2.09707 155.857 1.53741 156.882 1.53741Z" fill="white"/>
<path d="M174.609 29.5722C172.533 29.5722 170.705 29.1687 169.127 28.3618C167.576 27.5549 166.372 26.3965 165.513 24.8867C164.655 23.377 164.226 21.6199 164.226 19.6156C164.226 17.6112 164.655 15.8672 165.513 14.3834C166.372 12.8737 167.576 11.7153 169.127 10.9084C170.705 10.1014 172.533 9.69796 174.609 9.69796C176.686 9.69796 178.5 10.1014 180.05 10.9084C181.629 11.7153 182.833 12.8737 183.664 14.3834C184.522 15.8672 184.951 17.6112 184.951 19.6156C184.951 21.6199 184.522 23.377 183.664 24.8867C182.833 26.3965 181.629 27.5549 180.05 28.3618C178.5 29.1687 176.686 29.5722 174.609 29.5722ZM174.568 25.7848C176.257 25.7848 177.544 25.2642 178.43 24.223C179.317 23.1817 179.76 21.6459 179.76 19.6156C179.76 17.6112 179.317 16.0884 178.43 15.0472C177.544 13.98 176.271 13.4463 174.609 13.4463C172.948 13.4463 171.66 13.98 170.747 15.0472C169.861 16.0884 169.418 17.6112 169.418 19.6156C169.418 21.6459 169.861 23.1817 170.747 24.223C171.633 25.2642 172.906 25.7848 174.568 25.7848Z" fill="white"/>
<path d="M206.183 1.53741C206.959 1.53741 207.595 1.74566 208.094 2.16214C208.592 2.57863 208.841 3.12527 208.841 3.80206V27.1514C208.841 27.8542 208.606 28.4139 208.135 28.8303C207.665 29.2468 207.042 29.4551 206.266 29.4551C205.491 29.4551 204.868 29.2468 204.397 28.8303C203.927 28.4139 203.691 27.8542 203.691 27.1514V26.1752C203.082 27.2425 202.196 28.0755 201.033 28.6742C199.898 29.2729 198.596 29.5722 197.129 29.5722C195.384 29.5722 193.82 29.1557 192.436 28.3228C191.079 27.4898 190.013 26.3184 189.237 24.8086C188.49 23.2728 188.116 21.5158 188.116 19.5375C188.116 17.5592 188.49 15.8281 189.237 14.3444C190.013 12.8607 191.079 11.7153 192.436 10.9084C193.792 10.1014 195.357 9.69796 197.129 9.69796C198.596 9.69796 199.898 9.9843 201.033 10.557C202.168 11.1296 203.041 11.9366 203.65 12.9778V3.72397C203.65 3.07321 203.871 2.5526 204.314 2.16214C204.785 1.74566 205.408 1.53741 206.183 1.53741ZM198.499 25.7848C200.161 25.7848 201.435 25.2512 202.321 24.1839C203.234 23.1167 203.691 21.5939 203.691 19.6156C203.691 17.6372 203.234 16.1275 202.321 15.0863C201.435 14.019 200.175 13.4854 198.541 13.4854C196.88 13.4854 195.592 14.006 194.678 15.0472C193.765 16.0884 193.308 17.5852 193.308 19.5375C193.308 21.5158 193.765 23.0516 194.678 24.1449C195.592 25.2381 196.866 25.7848 198.499 25.7848Z" fill="white"/>
<path d="M230.256 24.0277C230.726 24.0277 231.1 24.1969 231.377 24.5353C231.682 24.8737 231.834 25.3293 231.834 25.9019C231.834 26.7089 231.322 27.3857 230.297 27.9323C229.356 28.4269 228.29 28.8303 227.099 29.1427C225.909 29.429 224.773 29.5722 223.693 29.5722C220.426 29.5722 217.837 28.6872 215.927 26.9171C214.016 25.147 213.061 22.7262 213.061 19.6546C213.061 17.7023 213.476 15.9713 214.307 14.4615C215.137 12.9518 216.3 11.7804 217.796 10.9474C219.318 10.1144 221.035 9.69796 222.946 9.69796C224.773 9.69796 226.365 10.0754 227.722 10.8303C229.079 11.5852 230.131 12.6524 230.879 14.032C231.626 15.4116 232 17.0386 232 18.9127C232 20.0321 231.474 20.5917 230.422 20.5917H218.169C218.335 22.3878 218.875 23.7154 219.789 24.5744C220.703 25.4073 222.032 25.8238 223.776 25.8238C224.662 25.8238 225.438 25.7197 226.102 25.5115C226.795 25.3032 227.57 25.0169 228.428 24.6525C229.259 24.236 229.868 24.0277 230.256 24.0277ZM223.07 13.134C221.658 13.134 220.523 13.5505 219.665 14.3834C218.834 15.2164 218.335 16.4138 218.169 17.9756H227.556C227.501 16.3878 227.085 15.1904 226.31 14.3834C225.535 13.5505 224.455 13.134 223.07 13.134Z" fill="white"/>
<path d="M11.2311 17.496C10.3282 16.3495 10.5816 14.7297 11.7972 13.878L27.2012 3.08573C28.4168 2.23409 30.1342 2.47313 31.0371 3.61963V3.61963C31.9401 4.76614 31.6866 6.38595 30.4711 7.23759L15.067 18.0299C13.8514 18.8815 12.134 18.6425 11.2311 17.496V17.496Z" fill="white"/>
<path fill-rule="evenodd" clip-rule="evenodd" d="M11.9952 5.17198L5.82623 5.17197C5.63695 5.17197 5.48351 5.3167 5.48351 5.49522V24.2436C5.48351 24.4222 5.63695 24.5669 5.82623 24.5669H25.7039C25.8932 24.5669 26.0467 24.4222 26.0467 24.2436V17.4554H26.0497L26.0572 15.5159C26.0627 14.0877 27.2947 12.9342 28.8089 12.9394C30.3231 12.9446 31.5461 14.1065 31.5406 15.5347L31.5302 18.2461V24.2436C31.5302 27.2786 28.9217 29.7389 25.7039 29.7389H5.82623C2.60849 29.7389 0 27.2786 0 24.2436V5.49522C0 2.4603 2.60849 0 5.82623 0H12.3379L14.8785 5.73443e-06C16.3927 5.73443e-06 17.6203 1.15779 17.6203 2.58599C17.6203 4.01419 16.3927 5.17198 14.8785 5.17198H11.9952Z" fill="white"/>
</svg>
