<svg width="101" height="101" viewBox="0 0 101 101" fill="none" xmlns="http://www.w3.org/2000/svg">
<path d="M22.3837 61.0357L18.8681 74.1602L6.01838 74.432C2.17821 67.3093 0 59.1601 0 50.5001C0 42.126 2.03657 34.2291 5.64653 27.2756H5.64929L17.0891 29.373L22.1005 40.7441C21.0516 43.802 20.4799 47.0845 20.4799 50.5001C20.4803 54.2071 21.1518 57.7589 22.3837 61.0357Z" fill="#FBBB00"/>
<path d="M100.118 41.0659C100.698 44.1208 101 47.2756 101 50.5C101 54.1154 100.62 57.6421 99.8959 61.044C97.4375 72.6201 91.014 82.7284 82.1155 89.8817L82.1128 89.8789L67.7037 89.1437L65.6643 76.4132C71.5689 72.9504 76.1833 67.5313 78.614 61.044H51.6104V41.0659H79.008H100.118Z" fill="#518EF8"/>
<path d="M82.1126 89.8791L82.1154 89.8818C73.4611 96.838 62.4675 101 50.5002 101C31.2686 101 14.5481 90.2509 6.01855 74.4322L22.3839 61.0359C26.6486 72.4177 37.6282 80.52 50.5002 80.52C56.0329 80.52 61.2162 79.0243 65.664 76.4133L82.1126 89.8791Z" fill="#28B446"/>
<path d="M82.7339 11.626L66.3741 25.0196C61.7709 22.1423 56.3295 20.4801 50.5 20.4801C37.3366 20.4801 26.1517 28.9541 22.1006 40.744L5.64925 27.2755H5.64648C14.0512 11.0711 30.9825 0 50.5 0C62.7531 0 73.988 4.3647 82.7339 11.626Z" fill="#F14336"/>
</svg>
