<svg width="32" height="32" viewBox="0 0 32 32" fill="none" xmlns="http://www.w3.org/2000/svg">
<path fill-rule="evenodd" clip-rule="evenodd" d="M16 32C24.8366 32 32 24.8366 32 16C32 7.16344 24.8366 0 16 0C7.16344 0 0 7.16344 0 16C0 24.8366 7.16344 32 16 32ZM19.2605 17.9432C20.0039 18.5685 20.8217 18.9528 21.6941 18.9528C22.2614 18.9521 22.8053 18.7177 23.2066 18.301C23.6078 17.8843 23.8337 17.3192 23.8348 16.7297C23.8344 16.14 23.6088 15.5746 23.2076 15.1576C22.8064 14.7406 22.2623 14.5062 21.6949 14.5058C20.1195 14.5058 19.6112 16.083 19.4474 17.0234L19.441 17.0579L19.2605 17.9432ZM17.4904 15.8477C18.1237 13.6122 19.6841 12.2555 21.6941 12.2555C24.0691 12.2555 26 14.2622 26 16.7305C26 19.1971 24.0691 21.2145 21.6941 21.2145C20.585 21.2145 19.6176 20.8607 18.776 20.3021L17.8158 25H15.6015L16.9259 18.5224C16.2989 17.7063 15.782 16.7831 15.3632 15.8724V16.8514C15.3632 19.2489 13.4869 21.2145 11.1808 21.2145C8.87625 21.2145 7 19.2489 7 16.8514V11H9.166V16.8514C9.16642 17.4069 9.37875 17.9395 9.75644 18.3324C10.1341 18.7254 10.6463 18.9467 11.1808 18.9478C11.7154 18.9469 12.228 18.7258 12.6059 18.3328C12.9839 17.9398 13.1965 17.4071 13.1972 16.8514V11H15.3632C15.7899 12.527 16.5245 14.3387 17.4904 15.8477Z" fill="black"/>
</svg>
