<?xml version="1.0" standalone="no"?>
<!DOCTYPE svg PUBLIC "-//W3C//DTD SVG 20010904//EN"
 "http://www.w3.org/TR/2001/REC-SVG-20010904/DTD/svg10.dtd">
<svg version="1.0" xmlns="http://www.w3.org/2000/svg"
 width="316.000000pt" height="316.000000pt" viewBox="0 0 316.000000 316.000000"
 preserveAspectRatio="xMidYMid meet">
<metadata>
Created by potrace 1.11, written by Peter Selinger 2001-2013
</metadata>
<g transform="translate(0.000000,316.000000) scale(0.100000,-0.100000)"
fill="#000000" stroke="none">
<path d="M647 2318 c-212 -27 -397 -173 -486 -381 -44 -104 -64 -205 -64 -342
-1 -215 29 -336 118 -475 124 -194 312 -295 535 -289 162 5 312 74 399 183
l31 39 0 -102 0 -101 223 0 223 0 0 725 c0 723 0 725 -21 726 -30 1 -365 1
-398 0 l-28 -1 1 -82 c1 -46 1 -89 1 -95 -1 -7 -28 14 -61 47 -120 120 -286
172 -473 148z m340 -409 c131 -60 195 -177 190 -352 -3 -108 -29 -176 -93
-243 -121 -129 -326 -127 -449 3 -122 129 -116 410 10 530 91 86 232 112 342
62z"/>
<path d="M1904 2302 l-32 -3 0 -179 c-1 -159 1 -178 16 -182 9 -2 144 -3 298
-3 228 1 281 -1 277 -12 -3 -7 -8 -13 -12 -13 -5 0 -19 -15 -32 -34 -13 -18
-43 -55 -65 -82 -219 -258 -484 -590 -485 -608 0 -11 -1 -91 -1 -176 l-1 -155
563 0 564 0 1 165 c0 91 -1 172 -3 181 -3 15 -35 16 -308 16 -167 0 -306 1
-308 4 -3 3 18 31 46 64 28 33 63 76 79 95 16 19 45 53 63 75 19 22 78 92 131
155 54 63 107 126 119 140 12 14 54 65 94 113 l74 88 -2 171 c0 95 -3 174 -5
176 -5 5 -1022 9 -1071 4z"/>
</g>
</svg>
